<svg id="mexico" xmlns="http://www.w3.org/2000/svg" viewBox="0 0 465.64 320.74"><defs><style>.cls-1{fill:#fff;}.cls-2{fill:#e6e6e6;}</style></defs><title>mexico</title><path class="cls-1" d="M8.33,43.37l31.51-.29a154,154,0,0,0,82.83,32.07,19,19,0,0,0,7.85-.57,30.86,30.86,0,0,0,5.5-3.12,30,30,0,0,1,34.21,2.81c6.6,5.7,10.28,14,14.63,21.52s10.2,15.1,18.62,17.38,19.21-3.7,18.61-12.4a51.86,51.86,0,0,1,37.48,31.57c3.32,8.59,4.52,18.45,10.86,25.14S287,165.94,296,168.54c3.67,1.05,8.1,3.72,7.13,7.41-.69,2.59-3.69,3.69-5.51,5.65-2.21,2.39-2.56,5.91-2.73,9.17-1.2,23.17,1,47.12,11.3,67.89s29.93,37.91,53,40.7S407.4,287.61,412.6,265c1.48-6.44,1.57-13.64,5.82-18.7s11.3-6.39,17.8-7.31q10.72-1.52,21.51-2.57c3.32-.33,7.11-.46,9.47,1.9,3.24,3.25,1.58,8.67,0,13a95.68,95.68,0,0,0-5.31,40.29l-8.8-5.19c-1.49,10.2-13.83,14.31-24.05,15.6s-22.46,3.19-26.61,12.62a44.5,44.5,0,0,1,15.84,17.81c-14.65-1.65-30.13,13.15-25.36,27.11-18.14,2.14-30.56-23.39-48.73-21.61-4.43.44-8.49,2.52-12.69,3.95-21.17,7.2-44-2.17-64.4-11.38L221,309.63c-18.77-8.48-38.54-17.8-49.83-35-2-3.08-3.78-6.63-3.33-10.29.37-3.07,2.24-5.72,3.33-8.62,3-7.94-.14-16.8-3.93-24.38a137.74,137.74,0,0,0-42-49.58c-4.59-3.35-9.65-6.7-11.83-12-1.14-2.72-1.38-5.73-2.22-8.56a38.28,38.28,0,0,0-5.6-10.51C94.07,134.11,80,119.14,71.08,101c-3.93-8-6.84-16.55-11.94-23.85S46,63.82,37.14,64.06c-4.94,13.88,3.2,28.69,11,41.16q11.13,17.7,22.24,35.4c6.25,9.93,12.61,20.15,14.93,31.66,1.59,7.87,2.14,17.54,9.27,21.24,2.12,1.1,4.6,1.47,6.56,2.84,3.13,2.18,4.17,6.26,5,10s-.08,9.44-3.85,8.85a5.92,5.92,0,0,1-2.82-1.66l-29.76-26c-1.5-1.32-3.08-2.75-3.63-4.67-1-3.47,1.7-6.85,2.23-10.42.88-5.89-4.08-10.86-8.6-14.73L27.18,129.85a18.26,18.26,0,0,1,15.08,3c-1.49-5.57,2.53-11.51,1.06-17.09-.85-3.21-3.37-5.67-5.67-8.06A111,111,0,0,1,7.54,44.15" transform="translate(-5.52 -40.89)"/><path class="cls-2" d="M8.33,45.37l15.76-.15L32,45.15c2.39,0,5.61-.65,7.81.38,3.52,1.65,6.82,5,10.13,7.16q5.72,3.69,11.74,6.86a156.61,156.61,0,0,0,51.2,16.54c7.59,1,15.34,2.57,22.18-1.63,7.78-4.76,16.31-6.56,25.17-3.58,17.9,6,19.94,27.9,33.29,39.07,5.62,4.7,12.68,7.1,19.83,4.68,6.16-2.09,10.84-7.18,10.78-13.86l-2.53,1.93a50.39,50.39,0,0,1,35.15,28c3.08,6.76,4.23,14.22,7.42,20.93a27.52,27.52,0,0,0,14.35,13.65,67.5,67.5,0,0,0,9,3.06c3.22.9,9.82,1.44,12,4.17,3.23,3.95-1.93,5.79-4,8.67-1.76,2.4-2.25,5.32-2.5,8.22A150.28,150.28,0,0,0,297,239.75c7.29,27.72,27.19,54.34,56.5,60.67,24.52,5.3,53.87-8.12,60.66-33.57,2.38-8.93,1.73-19.21,11.75-23.38,9.05-3.77,20.19-3.89,29.82-4.86,2.66-.26,6.25-1,8.62.46,3,1.88,2.88,5.09,2,8.31-1.28,4.74-3.14,9.29-4.26,14.1a100.24,100.24,0,0,0-2.22,30.11l3-1.72-8.8-5.19a2,2,0,0,0-2.94,1.19c-2.28,11.83-16.86,13.28-26.56,14.73-9.23,1.37-19.44,3.95-23.9,13a2.07,2.07,0,0,0,.72,2.74,44.76,44.76,0,0,1,15.13,17.09l1.72-3c-15.55-1.22-32.13,13.38-27.29,29.64l1.93-2.53c-12.79,1.12-22.12-10.45-32-16.68-4.67-2.94-10-5.2-15.59-5-8.27.29-15.68,5.32-23.95,6.26-19.54,2.21-38.59-6.72-55.91-14.55-17.57-7.94-35.27-15.63-52.68-23.9-14.8-7-30.13-15.5-39.49-29.43-3.42-5.1-4.24-9-1.7-14.69a25.84,25.84,0,0,0,2.72-10.36c.14-8-3.57-15.65-7.28-22.52a139.38,139.38,0,0,0-31.44-39.21c-6-5.16-14.68-9.35-19-16-2.73-4.16-2.71-9.45-4.69-13.95a60.71,60.71,0,0,0-6.57-10.64C93.72,130.67,80.14,115.79,71.65,97.6c-7-15.08-14.7-35.29-34.51-35.54a2,2,0,0,0-1.93,1.46c-5.74,18,6.38,35,15.48,49.45q9,14.32,18,28.66c5.18,8.26,10.54,16.68,13.42,26.08,2.17,7.1,2,15.2,5.75,21.77a14.59,14.59,0,0,0,5.74,5.76c1.68.92,3.64,1.24,5.33,2.13,2.88,1.52,4,4.41,4.79,7.4.4,1.52,1.24,4.18.56,5.75-1.64,3.81-4.57.57-6.36-1l-13.39-11.7c-4-3.47-8-6.93-11.9-10.41-2.9-2.55-5.17-3.93-4.31-8.45.41-2.15,1.67-4,2-6.26,1.2-9-7.68-15.13-13.6-20.2L28.59,128.43l-.88,3.35a17.1,17.1,0,0,1,13.54,2.81c1.58,1.06,3.23-.69,2.94-2.26-1.39-7.63,3.89-14.13-1-21.34-2.07-3-5-5.53-7.43-8.28a106.2,106.2,0,0,1-8.13-10.53,110.22,110.22,0,0,1-18.08-48c-.32-2.52-4.32-2.56-4,0a114.75,114.75,0,0,0,16,45.95,116.81,116.81,0,0,0,14.71,19c4.19,4.43,6,7.6,4.79,13.88-.66,3.62-1.36,6.73-.69,10.4l2.94-2.26a21.24,21.24,0,0,0-16.63-3.22,2,2,0,0,0-.88,3.34l26.63,22.81c4,3.45,8.92,6.82,11.94,11.27,3.82,5.65.4,8.93-.31,14.57-.49,3.91,1.55,6.52,4.3,9,4.37,4,8.93,7.81,13.39,11.7L95.1,212.36c2.27,2,5.21,5.53,8.7,4.78,6-1.28,4.82-10,3.61-14.15-.94-3.22-2.36-6.39-5.22-8.36-3.93-2.69-8.26-2.53-10.87-7.17-4.29-7.62-3.84-17.61-7.11-25.75-3.88-9.66-9.72-18.38-15.24-27.16-7-11.08-14.07-22.08-20.87-33.26-6.66-11-13.2-23.65-9-36.7l-1.93,1.47c20.33.26,26.1,24.63,33.79,39.05,8.44,15.83,20.52,29.26,30.89,43.79,2.86,4,5.9,8.12,7.39,12.86,1.25,4,1.51,8.12,3.88,11.73,4.23,6.44,12,10.38,17.8,15.21a136.35,136.35,0,0,1,32.69,40c4.89,9.08,9.1,18.79,4.56,28.84-3.18,7-2.65,12.26,1.7,18.73,8.57,12.76,21.8,21.3,35.29,28.12,17,8.59,34.72,16,52.09,23.83,16.15,7.3,32.6,15.55,50.41,17.72a57.15,57.15,0,0,0,27.54-3.28c8.61-3.25,15.26-3.53,23.23,1.36,10.86,6.67,20.55,18.75,34.53,17.53a2,2,0,0,0,1.93-2.54c-4.13-13.87,10.49-25.59,23.43-24.57,1.61.13,2.37-1.77,1.73-3a48.85,48.85,0,0,0-16.56-18.53l.72,2.74c9.42-19.18,46.11-4.09,50.86-28.69l-2.94,1.19,8.8,5.19a2,2,0,0,0,3-1.73,96.37,96.37,0,0,1,2.3-29.95c1.53-6.3,6.75-15,4.31-21.67-2.31-6.27-9.26-5.9-14.75-5.36-8.74.87-17.85,1.54-26.41,3.59-6.1,1.46-11.77,4.43-14.68,10.24-3.31,6.61-2.93,14.35-5.59,21.2-5.46,14-19.12,23.6-33.47,26.84-33.89,7.66-62.88-21.39-72.76-51.16-5.71-17.22-6.92-35.66-6-53.68a22.25,22.25,0,0,1,.75-5.92c.79-2.37,2.67-3.54,4.41-5.14s3.42-3.46,3.22-6.09c-.48-6.11-8.36-7.81-13-9.06-9.13-2.44-18.62-5-23.58-13.84-4.25-7.56-5.23-16.5-9.07-24.26a54.25,54.25,0,0,0-36.92-28.49,2,2,0,0,0-2.53,1.93c.07,8.7-10.34,12.54-17.54,10-8.14-2.86-13.19-11-17.17-18.15-7-12.48-14.22-24.72-29.63-26.9a31.89,31.89,0,0,0-18.81,2.94c-4.14,2.07-6.94,4.59-11.88,4.59a91,91,0,0,1-13.68-1.41A152.77,152.77,0,0,1,62.91,55.7Q56.54,52.3,50.5,48.3c-3-2-6.75-6.06-10.13-7.15-1.76-.57-4.56,0-6.44,0l-7.88.07-17.72.17c-2.57,0-2.58,4,0,4Z" transform="translate(-5.52 -40.89)"/></svg>