<svg xmlns="http://www.w3.org/2000/svg" viewBox="0 0 475.82 342.78"><defs><style>.cls-1,.cls-2,.cls-4{fill:#fff;}.cls-1,.cls-4{stroke:#e6e6e6;stroke-miterlimit:10;}.cls-3{fill:#e6e6e6;}.cls-4{stroke-width:4px;}</style></defs><title>sea-turtle</title><g id="eggs"><ellipse id="egg_1" data-name="egg 1" class="cls-1" cx="430.21" cy="292.1" rx="8" ry="6.5"/><ellipse id="egg_2" data-name="egg 2" class="cls-1" cx="447.21" cy="292.1" rx="9" ry="6.5"/><ellipse id="egg_3" data-name="egg 3" class="cls-1" cx="443.71" cy="268.1" rx="8.5" ry="5.5"/><ellipse id="egg_4" data-name="egg 4" class="cls-1" cx="470" cy="328" rx="9" ry="6" transform="translate(-51.65 41.91) rotate(-9.31)"/><ellipse id="egg_5" data-name="egg 5" class="cls-1" cx="435.21" cy="279.1" rx="9" ry="6.5"/><ellipse id="egg_6" data-name="egg 6" class="cls-1" cx="455.21" cy="278.1" rx="9" ry="6.5"/></g><g id="meat"><g id="head"><path class="cls-2" d="M114.35,204.32c-6.11.39-11.7-3.65-15.48-8.46s-6.32-10.5-10-15.4c-12.65-17-35.67-21.55-56.56-24.9-3.41-.55-6.95-1.09-10.28-.17-5.32,1.47-9,6.35-11.37,11.33-8.5,17.85-4.37,40.89,9.79,54.67s37.32,17.28,54.92,8.3c4.83-2.47,9.29-5.78,14.46-7.42s11.56-1.15,15.05,3" transform="translate(-4.79 -38.4)"/><path class="cls-3" d="M114.35,202.82c-13.07.06-17.65-14.38-24.17-23.12a51.92,51.92,0,0,0-20.29-15.84c-8.29-3.81-17.17-6.09-26.1-7.82-7.91-1.54-18.46-5-25.87-.44-7,4.29-10.51,13.28-12.09,21a51.28,51.28,0,0,0,1.36,25.73A48.09,48.09,0,0,0,42.7,234.85a50.54,50.54,0,0,0,27.79-1.44c9.64-3.42,23.72-17.06,33.35-7.07,1.34,1.39,3.46-.73,2.12-2.12-5-5.18-12.46-5.14-18.79-2.54-8.42,3.45-15.24,9-24.42,10.69C44.6,235.77,24.9,228.05,15,212.23c-9-14.38-11.37-39,1.81-52,7.47-7.34,21.51-2.4,30.59-.41,8.79,1.91,17.59,4.48,25.48,8.89,9.7,5.41,15.21,13.11,20.92,22.36,4.65,7.55,11,14.77,20.52,14.72a1.5,1.5,0,0,0,0-3Z" transform="translate(-4.79 -38.4)"/></g><g id="bottom_right_leg" data-name="bottom right leg"><path class="cls-2" d="M350,298.16c12.91,25.88,40,41.48,57.17,64.77,1.16,1.58,2.33,3.42,2,5.35s-2.33,3.45-4.22,4.38c-8.92,4.36-19.69,3.86-28.93.25s-17.13-10.06-24-17.26c-5.6-5.91-10.67-12.43-17.23-17.25-13-9.6-31.12-11.83-42-23.85" transform="translate(-4.79 -38.4)"/><path class="cls-3" d="M348.71,298.92c12.55,24.5,36.51,39.46,53.66,60.27,1.14,1.39,2.75,2.88,3.52,4.5a6.66,6.66,0,0,1-1.69,7.68c-3.32,2.51-9.6,2.92-13.59,2.91-8.37,0-16.36-3.08-23.32-7.59-13-8.41-20.75-22.35-33.5-30.85s-29.05-10.9-39.87-22.36c-1.32-1.4-3.44.72-2.12,2.13,10.51,11.13,25.92,13.92,38.61,21.63,8.23,5,14,12.59,20.6,19.47a75.83,75.83,0,0,0,19,15.08,44.1,44.1,0,0,0,22.24,5.46c5.45-.22,14.19-1.5,17.46-6.55s-3.1-11.13-6.21-14.8a219.15,219.15,0,0,0-16.52-17c-13.29-12.61-27.23-24.94-35.7-41.49-.88-1.71-3.47-.2-2.59,1.52Z" transform="translate(-4.79 -38.4)"/></g><g id="upper_right_leg" data-name="upper right leg"><path class="cls-2" d="M366.12,157.4l49.65-5.48c5.85-.65,11.93-1.37,16.9-4.54,5.13-3.27,9.08-9.1,15.14-9.73,3.14-.33,6.22.88,9.15,2.08q9.27,3.83,18.42,7.93a6.55,6.55,0,0,1,3.09,2.2c.87,1.39.58,3.19.16,4.78-4.05,15.32-17.65,26.5-32.29,32.55s-30.59,8-46.07,11.35" transform="translate(-4.79 -38.4)"/><path class="cls-3" d="M366.12,158.9c18.71-2.06,37.93-3.07,56.46-6.39,7.46-1.33,12.14-4.81,17.82-9.47,4.7-3.85,8.91-4.61,14.68-2.46,4.64,1.73,9.17,3.81,13.71,5.79,1.84.81,4.17,1.45,5.83,2.58,2.95,2,3.1,3.48,2.16,6.72a36.72,36.72,0,0,1-5.36,10.73A54.72,54.72,0,0,1,453,182.32c-16.22,9-35.27,11-53.12,14.78-1.89.4-1.09,3.29.79,2.89,27.13-5.81,62.11-9.15,76.36-37.07,1.81-3.54,5.15-9.89,2.73-13.82-1.42-2.3-4.66-3.21-6.95-4.22q-5.19-2.3-10.41-4.49c-5.64-2.38-11.82-5.8-18-3.41-6.52,2.53-10.43,8.93-17.16,11.3-9.06,3.19-19.84,3.06-29.33,4.11l-31.78,3.51c-1.89.21-1.92,3.21,0,3Z" transform="translate(-4.79 -38.4)"/></g><g id="upper_left_leg" data-name="upper left leg"><path class="cls-2" d="M183.79,141.23c2.9-10.92-.2-22.44-3.54-33.23q-5.82-18.77-12.62-37.23c-1.94-5.28-4-10.71-3.77-16.33s3.28-11.55,8.63-13.3a20.65,20.65,0,0,1,5.66-.74c12.61-.5,26.55-.55,36.13,7.66,7.94,6.81,10.87,17.67,13.1,27.89a563.11,563.11,0,0,1,9.34,56.73" transform="translate(-4.79 -38.4)"/><path class="cls-3" d="M185.24,141.62c4.4-18.72-4.88-39-10.88-56.43-1.71-5-3.49-9.89-5.28-14.82s-4-10.42-3.72-15.93,3.23-11,8.91-12.21c4.11-.89,8.92-.56,13.11-.5,9,.12,18.72,1.34,25.84,7.39,6.74,5.73,9.66,14.5,11.7,22.82,4.88,19.91,8,40.39,10.3,60.74.21,1.89,3.22,1.91,3,0-2.05-17.92-4.88-35.73-8.6-53.38-2.78-13.24-6.11-28.29-18.85-35.51-5.7-3.24-12.27-4.46-18.75-4.89-6.25-.42-14.62-1.26-20.58,1.06-15.38,6-7,26.23-3.24,36.75q5.33,14.81,10,29.82c3.47,11.13,6.87,22.62,4.12,34.3-.44,1.87,2.45,2.68,2.9.79Z" transform="translate(-4.79 -38.4)"/></g><g id="bottom_left_leg" data-name="bottom left leg"><path class="cls-2" d="M148.49,294.89c-.6,14.08-11.67,25.63-23.77,32.86s-25.81,11.61-37.47,19.54c-3.57,2.43-7.22,5.73-7.38,10-.11,2.69,1.2,5.22,2.73,7.44a35.48,35.48,0,0,0,28.88,15A50.64,50.64,0,0,0,123,378.19a95.46,95.46,0,0,0,49.47-30.05c9.18-10.59,16-23.4,18.61-37.18" transform="translate(-4.79 -38.4)"/><path class="cls-3" d="M147,294.89c-1.37,19.83-20.25,30.88-36.33,38.46-8.6,4-17.68,7.77-25.36,13.48-5.18,3.86-8.63,9.1-5.8,15.55,6.16,14,23.73,20.51,38,18.42,16.27-2.38,32-10.16,44.67-20.54,15.16-12.44,26.51-29.56,30.38-48.9.38-1.89-2.51-2.7-2.89-.8-6.43,32.13-33.62,57.28-64.72,65.6-8.86,2.37-17.7,3.12-26.34-.46-6.94-2.88-19-11.24-16.73-20,1.19-4.51,6.13-7.26,9.85-9.5s7.7-4.26,11.67-6.16c7.42-3.55,15-6.76,22.1-11,12.44-7.5,23.46-19,24.51-34.16.13-1.93-2.87-1.92-3,0Z" transform="translate(-4.79 -38.4)"/></g></g><g id="shell"><ellipse id="shell-2" data-name="shell" class="cls-4" cx="252.21" cy="186.6" rx="158" ry="99"/><g id="shell_bottom" data-name="shell bottom"><path class="cls-2" d="M409.11,198.92a179.44,179.44,0,0,0,27.47,40.6c6.17,6.86,13.37,14.64,12.27,23.8-.9,7.45-7.14,13.05-13.45,17.1-23.83,15.27-53.19,18.43-81.36,21.19" transform="translate(-4.79 -38.4)"/><path class="cls-3" d="M407.82,199.68a183.74,183.74,0,0,0,24.24,36.93c4.7,5.55,10.42,10.72,13.56,17.38,3.86,8.17.7,15.69-5.77,21.29-11.14,9.64-26.5,14.84-40.59,18.22-14.85,3.56-30.06,5.12-45.22,6.61-1.91.18-1.93,3.19,0,3,16.53-1.63,33.19-3.31,49.3-7.54,14.12-3.71,30.49-9.49,40.85-20.26,10.59-11,5.35-23.21-3.42-33.34-11.81-13.65-22.28-27.58-30.36-43.8-.86-1.73-3.45-.21-2.59,1.51Z" transform="translate(-4.79 -38.4)"/></g></g></svg>